<?xml version="1.0" encoding="UTF-8" standalone="no"?>
<!-- Created with Inkscape (http://www.inkscape.org/) -->

<svg
   xmlns:dc="http://purl.org/dc/elements/1.1/"
   xmlns:cc="http://creativecommons.org/ns#"
   xmlns:rdf="http://www.w3.org/1999/02/22-rdf-syntax-ns#"
   xmlns:svg="http://www.w3.org/2000/svg"
   xmlns="http://www.w3.org/2000/svg"
   xmlns:sodipodi="http://sodipodi.sourceforge.net/DTD/sodipodi-0.dtd"
   xmlns:inkscape="http://www.inkscape.org/namespaces/inkscape"
   width="14.111111mm"
   height="14.111111mm"
   viewBox="0 0 49.999998 49.999998"
   id="svg6418"
   version="1.1"
   inkscape:version="0.91 r13725"
   sodipodi:docname="researchgate_icon.svg">
  <defs
     id="defs6420" />
  <sodipodi:namedview
     id="base"
     pagecolor="#ffffff"
     bordercolor="#666666"
     borderopacity="1.0"
     inkscape:pageopacity="0.0"
     inkscape:pageshadow="2"
     inkscape:zoom="4.1888889"
     inkscape:cx="122.46684"
     inkscape:cy="108.38197"
     inkscape:document-units="px"
     inkscape:current-layer="layer1"
     showgrid="false"
     fit-margin-top="0"
     fit-margin-left="0"
     fit-margin-right="0"
     fit-margin-bottom="0"
     inkscape:window-width="1680"
     inkscape:window-height="956"
     inkscape:window-x="0"
     inkscape:window-y="1"
     inkscape:window-maximized="1" />
  <metadata
     id="metadata6423">
    <rdf:RDF>
      <cc:Work
         rdf:about="">
        <dc:format>image/svg+xml</dc:format>
        <dc:type
           rdf:resource="http://purl.org/dc/dcmitype/StillImage" />
        <dc:title></dc:title>
      </cc:Work>
    </rdf:RDF>
  </metadata>
  <g
     inkscape:label="Layer 1"
     inkscape:groupmode="layer"
     id="layer1"
     transform="translate(-568.72302,-925.02992)">
    <path
       inkscape:connector-curvature="0"
       id="path7033"
       d="m 568.72302,950.02992 0,-25 25,0 25,0 0,25 0,25 -25,0 -25,0 0,-25 z m 31.5625,18.05556 c 0.22222,0 0.38194,-0.29041 0.38194,-0.69445 0,-0.44008 -0.15666,-0.69444 -0.42773,-0.69444 -1.90304,0 -5.84832,-4.14211 -9.37216,-9.83974 l -1.01757,-1.64529 1.13153,-0.5066 c 4.7081,-2.10788 6.54322,-8.05735 3.54025,-11.47754 -2.20935,-2.51631 -4.32978,-2.97887 -12.53487,-2.73443 -5.4804,0.16328 -6.04167,0.22478 -6.04167,0.66208 0,0.5076 0.53115,0.81929 1.39612,0.81929 0.28454,0 0.86807,0.30168 1.29673,0.6704 l 0.77937,0.67039 0,10.84967 c 0,10.76664 -0.005,10.85429 -0.6035,11.45317 -0.33193,0.33193 -1.08193,0.68084 -1.66667,0.77535 -0.82407,0.13319 -1.08312,0.31155 -1.15192,0.7931 l -0.0888,0.62126 5.57488,0 c 5.37181,0 5.57487,-0.0201 5.57487,-0.55027 0,-0.35064 -0.22672,-0.59288 -0.625,-0.66774 -3.60408,-0.67748 -3.53217,-0.54556 -3.53757,-6.49033 l -0.004,-4.51388 1.64894,0 1.64894,0 1.81537,3.013 c 2.60837,4.32915 5.10624,7.53577 6.57988,8.44685 1.37641,0.85097 3.28901,1.34088 4.52215,1.15836 0.43923,-0.065 0.97048,-0.11821 1.18055,-0.11821 z m -17.21065,-14.62964 c -0.10185,-0.10185 -0.18518,-2.58765 -0.18518,-5.52401 l 0,-5.33883 1.26079,-0.18907 c 2.76202,-0.41419 5.85451,0.44616 7.04534,1.96006 1.14505,1.45569 1.39535,4.37233 0.52201,6.0826 -0.62135,1.21678 -2.04347,2.38703 -3.38487,2.78539 -1.39459,0.41415 -4.9178,0.56415 -5.25809,0.22386 z m 23.51376,-7.1617 c 2.28451,-0.81476 3.23012,-2.50143 3.2394,-5.77811 l 0.006,-2.15278 -2.5,0 -2.5,0 0,0.97223 0,0.97222 1.42423,0 1.42423,0 -0.13855,1.44199 c -0.18109,1.88454 -1.06728,2.72467 -2.87406,2.72467 -1.50689,0 -2.47088,-0.57976 -2.87062,-1.72644 -0.46409,-1.33129 -0.38224,-6.75043 0.11652,-7.71493 1.08304,-2.09436 3.69921,-2.27901 5.27936,-0.37262 0.50199,0.60563 0.64261,0.63974 1.45834,0.35384 0.49652,-0.17403 0.90277,-0.44389 0.90277,-0.5997 0,-0.1558 -0.47156,-0.75485 -1.04793,-1.33121 -1.57205,-1.57206 -3.79853,-2.0416 -5.98434,-1.26204 -2.53487,0.90404 -3.23163,2.4015 -3.23785,6.95866 -0.003,1.83333 0.11758,3.77296 0.26686,4.31028 0.78412,2.82241 3.99957,4.2867 7.03554,3.20394 z"
       style="fill:#142735;fill-opacity:1" />
  </g>
</svg>
